<?xml version="1.0" encoding="UTF-8" standalone="no"?>
<!DOCTYPE svg PUBLIC "-//W3C//DTD SVG 1.1//EN" "http://www.w3.org/Graphics/SVG/1.1/DTD/svg11.dtd">
<svg version="1.1" xmlns="http://www.w3.org/2000/svg" xmlns:xlink="http://www.w3.org/1999/xlink" preserveAspectRatio="xMidYMid meet" viewBox="0 0 16 16" width="16" height="16"><defs><path d="M0 -3L1.6 -3L1.6 3L0 3L0 -3Z" id="bePkexpdq"></path><path d="M1.6 -2L3.2 -2L3.2 3L1.6 3L1.6 -2Z" id="f4eYYcAfx"></path><path d="M4.8 -4L6.4 -4L6.4 3L4.8 3L4.8 -4Z" id="dxIqtzSfX"></path><path d="M4.8 2L6.4 2L6.4 8L4.8 8L4.8 2Z" id="ffdWEqyU1"></path><path d="M3.2 -3.14L4.8 -3.14L4.8 8L3.2 8L3.2 -3.14Z" id="e1Zsq4CVrI"></path><path d="M1.6 0L3.2 0L3.2 8L1.6 8L1.6 0Z" id="awmXgaSIO"></path><path d="M0 1L1.6 1L1.6 8L0 8L0 1Z" id="b41r47DpJ"></path><path d="M0 7L1.6 7L1.6 13L0 13L0 7Z" id="eRNV1bw2R"></path><path d="M1.6 8L3.2 8L3.2 13L1.6 13L1.6 8Z" id="a1biMA2Yx"></path><path d="M3.2 5L4.8 5L4.8 13L3.2 13L3.2 5Z" id="a3qpWrNpGQ"></path><path d="M4.8 6L6.4 6L6.4 13L4.8 13L4.8 6Z" id="i7xjpuNg6"></path><path d="M4.8 12L6.4 12L6.4 18L4.8 18L4.8 12Z" id="d133zy94J6"></path><path d="M3.2 13L4.8 13L4.8 18L3.2 18L3.2 13Z" id="a2N3Pcl5Iq"></path><path d="M1.6 10L3.2 10L3.2 18L1.6 18L1.6 10Z" id="d6wyCNVs97"></path><path d="M0 11L1.6 11L1.6 18L0 18L0 11Z" id="e6NKC0upEG"></path><path d="M0 17L1.6 17L1.6 23L0 23L0 17Z" id="a1CIneYkmx"></path><path d="M1.6 18L3.2 18L3.2 23L1.6 23L1.6 18Z" id="faO5o786b"></path><path d="M3.2 15L4.8 15L4.8 23L3.2 23L3.2 15Z" id="anbOR2gbA"></path><path d="M4.8 16L6.4 16L6.4 23L4.8 23L4.8 16Z" id="e2QwoKTXvc"></path><path d="M4.8 22L6.4 22L6.4 28L4.8 28L4.8 22Z" id="cTUkIsiFw"></path><path d="M3.2 23L4.8 23L4.8 28L3.2 28L3.2 23Z" id="b3Xg2Dk9hg"></path><path d="M1.6 20L3.2 20L3.2 28L1.6 28L1.6 20Z" id="b4ESsOfBfF"></path><path d="M0 21L1.6 21L1.6 28L0 28L0 21Z" id="f4Oz9Y0NC"></path><path d="M6.4 -9L8 -9L8 -3L6.4 -3L6.4 -9Z" id="baC3K9VXj"></path><path d="M8 -8L9.6 -8L9.6 -3L8 -3L8 -8Z" id="c1siK4i1IP"></path><path d="M9.6 -11L11.2 -11L11.2 -3L9.6 -3L9.6 -11Z" id="a2TSDtuh2M"></path><path d="M11.2 -10L12.8 -10L12.8 -3L11.2 -3L11.2 -10Z" id="b5F4Dwh0Fw"></path><path d="M11.2 -4L12.8 -4L12.8 2L11.2 2L11.2 -4Z" id="c1CXVG4cuF"></path><path d="M9.6 -3L11.2 -3L11.2 2L9.6 2L9.6 -3Z" id="bKG6vPqF"></path><path d="M8 -6L9.6 -6L9.6 2L8 2L8 -6Z" id="awd3cCA28"></path><path d="M6.4 -5L8 -5L8 2L6.4 2L6.4 -5Z" id="b6jAzTceCO"></path><path d="M6.4 1L8 1L8 7L6.4 7L6.4 1Z" id="b3v02HMqnQ"></path><path d="M8 2L9.6 2L9.6 7L8 7L8 2Z" id="c5i2sYr6Rq"></path><path d="M9.6 -1L11.2 -1L11.2 7L9.6 7L9.6 -1Z" id="c73h6Vutq"></path><path d="M11.2 0L12.8 0L12.8 7L11.2 7L11.2 0Z" id="c1jS5EtiuQ"></path><path d="M11.2 6L12.8 6L12.8 12L11.2 12L11.2 6Z" id="dxgVNN3ME"></path><path d="M9.6 7L11.2 7L11.2 12L9.6 12L9.6 7Z" id="a2zO8DwhTc"></path><path d="M6.4 5L8 5L8 12L6.4 12L6.4 5Z" id="a1RPelFYDP"></path><path d="M6.4 11L8 11L8 17L6.4 17L6.4 11Z" id="ahydp7hX"></path><path d="M8 12L9.6 12L9.6 17L8 17L8 12Z" id="c735GNG6W"></path><path d="M9.6 9L11.2 9L11.2 17L9.6 17L9.6 9Z" id="a8toFGCyf"></path><path d="M11.2 10L12.8 10L12.8 17L11.2 17L11.2 10Z" id="aXnlWtZFk"></path><path d="M11.2 16L12.8 16L12.8 22L11.2 22L11.2 16Z" id="a2gGqICUA8"></path><path d="M9.6 17L11.2 17L11.2 22L9.6 22L9.6 17Z" id="b44ZLUszO"></path><path d="M8 14L9.6 14L9.6 22L8 22L8 14Z" id="bN0ywA0lw"></path><path d="M6.4 15L8 15L8 22L6.4 22L6.4 15Z" id="c3ESbi28vs"></path><path d="M12.8 -6L14.4 -6L14.4 0L12.8 0L12.8 -6Z" id="c20EUsxCvg"></path><path d="M14.4 -5L16 -5L16 0L14.4 0L14.4 -5Z" id="b5M6Cmzo6c"></path><path d="M14.4 -3L16 -3L16 5L14.4 5L14.4 -3Z" id="c1y3kZmRqH"></path><path d="M12.8 -2L14.4 -2L14.4 5L12.8 5L12.8 -2Z" id="a1ODtSuhI8"></path><path d="M12.8 4L14.4 4L14.4 10L12.8 10L12.8 4Z" id="c24qhTYwSs"></path><path d="M14.4 5L16 5L16 10L14.4 10L14.4 5Z" id="b1tlLAQMbL"></path><path d="M14.4 7L16 7L16 15L14.4 15L14.4 7Z" id="f86Kv5OfV"></path><path d="M12.8 8L14.4 8L14.4 15L12.8 15L12.8 8Z" id="a3em003zCm"></path><path d="M12.8 14L14.4 14L14.4 20L12.8 20L12.8 14Z" id="a1O1ye1qQt"></path><path d="M14.4 15L16 15L16 20L14.4 20L14.4 15Z" id="bAXqYuCKv"></path><path d="M14.4 17L16 17L16 25L14.4 25L14.4 17Z" id="ca2Bkv1BU"></path><path d="M12.8 18L14.4 18L14.4 25L12.8 25L12.8 18Z" id="cooHxo9Fn"></path><path d="M6.4 3L8 3L8 11L6.4 11L6.4 3Z" id="b4VMIgkJkA"></path><path d="M8 6L9.6 6L9.6 12L8 12L8 6Z" id="anrAKxYDA"></path></defs><g><g><g><use xlink:href="#bePkexpdq" opacity="1" fill="#edbd39" fill-opacity="1"></use></g><g><use xlink:href="#f4eYYcAfx" opacity="1" fill="#f0d153" fill-opacity="1"></use></g><g><use xlink:href="#dxIqtzSfX" opacity="1" fill="#e0b939" fill-opacity="1"></use></g><g><use xlink:href="#ffdWEqyU1" opacity="1" fill="#edbd39" fill-opacity="1"></use></g><g><use xlink:href="#e1Zsq4CVrI" opacity="1" fill="#f0d153" fill-opacity="1"></use></g><g><use xlink:href="#awmXgaSIO" opacity="1" fill="#d5a70f" fill-opacity="1"></use></g><g><use xlink:href="#b41r47DpJ" opacity="1" fill="#e0b939" fill-opacity="1"></use></g><g><use xlink:href="#eRNV1bw2R" opacity="1" fill="#edbd39" fill-opacity="1"></use></g><g><use xlink:href="#a1biMA2Yx" opacity="1" fill="#f0d153" fill-opacity="1"></use></g><g><use xlink:href="#a3qpWrNpGQ" opacity="1" fill="#d5a70f" fill-opacity="1"></use></g><g><use xlink:href="#i7xjpuNg6" opacity="1" fill="#e0b939" fill-opacity="1"></use></g><g><use xlink:href="#d133zy94J6" opacity="1" fill="#edbd39" fill-opacity="1"></use></g><g><use xlink:href="#a2N3Pcl5Iq" opacity="1" fill="#f0d153" fill-opacity="1"></use></g><g><use xlink:href="#d6wyCNVs97" opacity="1" fill="#d5a70f" fill-opacity="1"></use></g><g><use xlink:href="#e6NKC0upEG" opacity="1" fill="#e0b939" fill-opacity="1"></use></g><g><use xlink:href="#a1CIneYkmx" opacity="1" fill="#edbd39" fill-opacity="1"></use></g><g><use xlink:href="#faO5o786b" opacity="1" fill="#f0d153" fill-opacity="1"></use></g><g><use xlink:href="#anbOR2gbA" opacity="1" fill="#d5a70f" fill-opacity="1"></use></g><g><use xlink:href="#e2QwoKTXvc" opacity="1" fill="#e0b939" fill-opacity="1"></use></g><g><use xlink:href="#cTUkIsiFw" opacity="1" fill="#edbd39" fill-opacity="1"></use></g><g><use xlink:href="#b3Xg2Dk9hg" opacity="1" fill="#f0d153" fill-opacity="1"></use></g><g><use xlink:href="#b4ESsOfBfF" opacity="1" fill="#d5a70f" fill-opacity="1"></use></g><g><use xlink:href="#f4Oz9Y0NC" opacity="1" fill="#e0b939" fill-opacity="1"></use></g><g><use xlink:href="#baC3K9VXj" opacity="1" fill="#edbd39" fill-opacity="1"></use></g><g><use xlink:href="#c1siK4i1IP" opacity="1" fill="#f0d153" fill-opacity="1"></use></g><g><use xlink:href="#a2TSDtuh2M" opacity="1" fill="#d5a70f" fill-opacity="1"></use></g><g><use xlink:href="#b5F4Dwh0Fw" opacity="1" fill="#e0b939" fill-opacity="1"></use></g><g><use xlink:href="#c1CXVG4cuF" opacity="1" fill="#edbd39" fill-opacity="1"></use></g><g><use xlink:href="#bKG6vPqF" opacity="1" fill="#f0d153" fill-opacity="1"></use></g><g><use xlink:href="#awd3cCA28" opacity="1" fill="#d5a70f" fill-opacity="1"></use></g><g><use xlink:href="#b6jAzTceCO" opacity="1" fill="#e0b939" fill-opacity="1"></use></g><g><use xlink:href="#b3v02HMqnQ" opacity="1" fill="#edbd39" fill-opacity="1"></use></g><g><use xlink:href="#c5i2sYr6Rq" opacity="1" fill="#f0d153" fill-opacity="1"></use></g><g><use xlink:href="#c73h6Vutq" opacity="1" fill="#d5a70f" fill-opacity="1"></use></g><g><use xlink:href="#c1jS5EtiuQ" opacity="1" fill="#e0b939" fill-opacity="1"></use></g><g><use xlink:href="#dxgVNN3ME" opacity="1" fill="#edbd39" fill-opacity="1"></use></g><g><use xlink:href="#a2zO8DwhTc" opacity="1" fill="#f0d153" fill-opacity="1"></use></g><g><use xlink:href="#a1RPelFYDP" opacity="1" fill="#e0b939" fill-opacity="1"></use></g><g><use xlink:href="#ahydp7hX" opacity="1" fill="#edbd39" fill-opacity="1"></use></g><g><use xlink:href="#c735GNG6W" opacity="1" fill="#f0d153" fill-opacity="1"></use></g><g><use xlink:href="#a8toFGCyf" opacity="1" fill="#d5a70f" fill-opacity="1"></use></g><g><use xlink:href="#aXnlWtZFk" opacity="1" fill="#e0b939" fill-opacity="1"></use></g><g><use xlink:href="#a2gGqICUA8" opacity="1" fill="#edbd39" fill-opacity="1"></use></g><g><use xlink:href="#b44ZLUszO" opacity="1" fill="#f0d153" fill-opacity="1"></use></g><g><use xlink:href="#bN0ywA0lw" opacity="1" fill="#d5a70f" fill-opacity="1"></use></g><g><use xlink:href="#c3ESbi28vs" opacity="1" fill="#e0b939" fill-opacity="1"></use></g><g><use xlink:href="#c20EUsxCvg" opacity="1" fill="#edbd39" fill-opacity="1"></use></g><g><use xlink:href="#b5M6Cmzo6c" opacity="1" fill="#f0d153" fill-opacity="1"></use></g><g><use xlink:href="#c1y3kZmRqH" opacity="1" fill="#d5a70f" fill-opacity="1"></use></g><g><use xlink:href="#a1ODtSuhI8" opacity="1" fill="#e0b939" fill-opacity="1"></use></g><g><use xlink:href="#c24qhTYwSs" opacity="1" fill="#edbd39" fill-opacity="1"></use></g><g><use xlink:href="#b1tlLAQMbL" opacity="1" fill="#f0d153" fill-opacity="1"></use></g><g><use xlink:href="#f86Kv5OfV" opacity="1" fill="#d5a70f" fill-opacity="1"></use></g><g><use xlink:href="#a3em003zCm" opacity="1" fill="#e0b939" fill-opacity="1"></use></g><g><use xlink:href="#a1O1ye1qQt" opacity="1" fill="#edbd39" fill-opacity="1"></use></g><g><use xlink:href="#bAXqYuCKv" opacity="1" fill="#f0d153" fill-opacity="1"></use></g><g><use xlink:href="#ca2Bkv1BU" opacity="1" fill="#d5a70f" fill-opacity="1"></use></g><g><use xlink:href="#cooHxo9Fn" opacity="1" fill="#e0b939" fill-opacity="1"></use></g><g><use xlink:href="#b4VMIgkJkA" opacity="1" fill="#d5a70f" fill-opacity="1"></use></g><g><use xlink:href="#anrAKxYDA" opacity="1" fill="#edbd39" fill-opacity="1"></use></g></g></g></svg>