<?xml version="1.0" encoding="UTF-8" standalone="no"?>
<!DOCTYPE svg PUBLIC "-//W3C//DTD SVG 1.1//EN" "http://www.w3.org/Graphics/SVG/1.1/DTD/svg11.dtd">
<svg version="1.1" xmlns="http://www.w3.org/2000/svg" xmlns:xlink="http://www.w3.org/1999/xlink" preserveAspectRatio="xMidYMid meet" viewBox="0 0 16 16" width="16" height="16"><defs><path d="M17 2C17 5.31 15.65 8 14 8C12.34 8 11 5.31 11 2C11 -1.31 12.34 -4 14 -4C15.65 -4 17 -1.31 17 2Z" id="a1cpV87aE"></path><path d="M13 2C13 5.31 11.65 8 10 8C8.34 8 7 5.31 7 2C7 -1.31 8.34 -4 10 -4C11.65 -4 13 -1.31 13 2Z" id="b3BfwfAr4c"></path><path d="M9 2C9 5.31 7.65 8 6 8C4.34 8 3 5.31 3 2C3 -1.31 4.34 -4 6 -4C7.65 -4 9 -1.31 9 2Z" id="b2fzV9VH9i"></path><path d="M5 2C5 5.31 3.65 8 2 8C0.34 8 -1 5.31 -1 2C-1 -1.31 0.34 -4 2 -4C3.65 -4 5 -1.31 5 2Z" id="bGxiYQY1u"></path><path d="M1 2C1 5.31 -0.35 8 -2 8C-3.66 8 -5 5.31 -5 2C-5 -1.31 -3.66 -4 -2 -4C-0.35 -4 1 -1.31 1 2Z" id="g1hMoNZLGX"></path><path d="M17.5 10C17.5 13.31 16.15 16 14.5 16C12.84 16 11.5 13.31 11.5 10C11.5 6.69 12.84 4 14.5 4C16.15 4 17.5 6.69 17.5 10Z" id="k5uNmYlIr"></path><path d="M13.5 10C13.5 13.31 12.15 16 10.5 16C8.84 16 7.5 13.31 7.5 10C7.5 6.69 8.84 4 10.5 4C12.15 4 13.5 6.69 13.5 10Z" id="asY7Mwmpv"></path><path d="M9.5 10C9.5 13.31 8.15 16 6.5 16C4.84 16 3.5 13.31 3.5 10C3.5 6.69 4.84 4 6.5 4C8.15 4 9.5 6.69 9.5 10Z" id="a2IHkHl3RV"></path><path d="M5.5 10C5.5 13.31 4.15 16 2.5 16C0.84 16 -0.5 13.31 -0.5 10C-0.5 6.69 0.84 4 2.5 4C4.15 4 5.5 6.69 5.5 10Z" id="bUxoXDpXT"></path><path d="M17 18C17 21.31 15.65 24 14 24C12.34 24 11 21.31 11 18C11 14.69 12.34 12 14 12C15.65 12 17 14.69 17 18Z" id="a6xnGaXwZ"></path><path d="M13 17.95C13 21.26 11.65 23.95 10 23.95C8.34 23.95 7 21.26 7 17.95C7 14.64 8.34 11.95 10 11.95C11.65 11.95 13 14.64 13 17.95Z" id="a76lagbnE"></path><path d="M9 18C9 21.31 7.65 24 6 24C4.34 24 3 21.31 3 18C3 14.69 4.34 12 6 12C7.65 12 9 14.69 9 18Z" id="aF7g4ahJA"></path><path d="M5 18C5 21.31 3.65 24 2 24C0.34 24 -1 21.31 -1 18C-1 14.69 0.34 12 2 12C3.65 12 5 14.69 5 18Z" id="e1qjohBASi"></path><path d="M1.5 10C1.5 13.31 0.15 16 -1.5 16C-3.16 16 -4.5 13.31 -4.5 10C-4.5 6.69 -3.16 4 -1.5 4C0.15 4 1.5 6.69 1.5 10Z" id="cw80XGkbo"></path><path d="M1 18C1 21.31 -0.35 24 -2 24C-3.66 24 -5 21.31 -5 18C-5 14.69 -3.66 12 -2 12C-0.35 12 1 14.69 1 18Z" id="a2Ja2BveqU"></path></defs><g><g><g><use xlink:href="#a1cpV87aE" opacity="1" fill="#086c00" fill-opacity="1"></use></g><g><use xlink:href="#b3BfwfAr4c" opacity="1" fill="#0c9e00" fill-opacity="1"></use></g><g><use xlink:href="#b2fzV9VH9i" opacity="1" fill="#086c00" fill-opacity="1"></use></g><g><use xlink:href="#bGxiYQY1u" opacity="1" fill="#0c9e00" fill-opacity="1"></use></g><g><use xlink:href="#g1hMoNZLGX" opacity="1" fill="#086c00" fill-opacity="1"></use></g><g><use xlink:href="#k5uNmYlIr" opacity="1" fill="#0c9e00" fill-opacity="1"></use></g><g><use xlink:href="#asY7Mwmpv" opacity="1" fill="#086c00" fill-opacity="1"></use></g><g><use xlink:href="#a2IHkHl3RV" opacity="1" fill="#0c9e00" fill-opacity="1"></use></g><g><use xlink:href="#bUxoXDpXT" opacity="1" fill="#086c00" fill-opacity="1"></use></g><g><use xlink:href="#a6xnGaXwZ" opacity="1" fill="#086c00" fill-opacity="1"></use></g><g><use xlink:href="#a76lagbnE" opacity="1" fill="#0c9e00" fill-opacity="1"></use></g><g><use xlink:href="#aF7g4ahJA" opacity="1" fill="#086c00" fill-opacity="1"></use></g><g><use xlink:href="#e1qjohBASi" opacity="1" fill="#0c9e00" fill-opacity="1"></use></g><g><use xlink:href="#cw80XGkbo" opacity="1" fill="#0c9e00" fill-opacity="1"></use></g><g><use xlink:href="#a2Ja2BveqU" opacity="1" fill="#086c00" fill-opacity="1"></use></g></g></g></svg>