<?xml version="1.0" encoding="UTF-8" standalone="no"?>
<!DOCTYPE svg PUBLIC "-//W3C//DTD SVG 1.1//EN" "http://www.w3.org/Graphics/SVG/1.1/DTD/svg11.dtd">
<svg version="1.1" xmlns="http://www.w3.org/2000/svg" xmlns:xlink="http://www.w3.org/1999/xlink" preserveAspectRatio="xMidYMid meet" viewBox="0 0 16 16" width="16" height="16"><defs><path d="M10 2L18 2L18 4L10 4L10 2Z" id="a1claE6BER"></path><path d="M-6 2L2 2L2 4L-6 4L-6 2Z" id="aWy2W4tpB"></path><path d="M0 0L8 0L8 2L0 2L0 0Z" id="c1q5Z1zdjr"></path><path d="M6 6L14 6L14 8L6 8L6 6Z" id="bakgN6MjN"></path><path d="M14 6L22 6L22 8L14 8L14 6Z" id="b5h4Gcbua0"></path><path d="M-2 6L6 6L6 8L-2 8L-2 6Z" id="bAJ0DnMyp"></path><path d="M4 4L12 4L12 6L4 6L4 4Z" id="b255zIZpu"></path><path d="M12 4L20 4L20 6L12 6L12 4Z" id="a5cL1ydKKp"></path><path d="M8 0L16 0L16 2L8 2L8 0Z" id="a2qvhNs79"></path><path d="M-4 4L4 4L4 6L-4 6L-4 4Z" id="g4rznVeBv"></path><path d="M2 2L10 2L10 4L2 4L2 2Z" id="d1JEdnmta"></path><path d="M20 14L28 14L28 16L20 16L20 14Z" id="bf26S9e1i"></path><path d="M10 10L18 10L18 12L10 12L10 10Z" id="f63DfEFYBu"></path><path d="M-6 10L2 10L2 12L-6 12L-6 10Z" id="a36qx4R8Rt"></path><path d="M0 8L8 8L8 10L0 10L0 8Z" id="c1zMNsDU2e"></path><path d="M6 14L14 14L14 16L6 16L6 14Z" id="ffq99iFr6"></path><path d="M14 14L22 14L22 16L14 16L14 14Z" id="adx5helzL"></path><path d="M-2 14L6 14L6 16L-2 16L-2 14Z" id="a3liNHskVC"></path><path d="M4 12L12 12L12 14L4 14L4 12Z" id="gbUpKiWZy"></path><path d="M12 12L20 12L20 14L12 14L12 12Z" id="b5Y8TwBSYZ"></path><path d="M8 8L16 8L16 10L8 10L8 8Z" id="c1Akw82QfV"></path><path d="M-4 12L4 12L4 14L-4 14L-4 12Z" id="bsRDsFVLv"></path><path d="M2 10L10 10L10 12L2 12L2 10Z" id="a4X1irnNQk"></path></defs><g><g><g><use xlink:href="#a1claE6BER" opacity="1" fill="#b9613a" fill-opacity="1"></use></g><g><use xlink:href="#aWy2W4tpB" opacity="1" fill="#b9613a" fill-opacity="1"></use></g><g><use xlink:href="#c1q5Z1zdjr" opacity="1" fill="#b9613a" fill-opacity="1"></use></g><g><use xlink:href="#bakgN6MjN" opacity="1" fill="#b9613a" fill-opacity="1"></use></g><g><use xlink:href="#b5h4Gcbua0" opacity="1" fill="#d47c3e" fill-opacity="1"></use></g><g><use xlink:href="#bAJ0DnMyp" opacity="1" fill="#d47c3e" fill-opacity="1"></use></g><g><use xlink:href="#b255zIZpu" opacity="1" fill="#d47c3e" fill-opacity="1"></use></g><g><use xlink:href="#a5cL1ydKKp" opacity="1" fill="#c5764c" fill-opacity="1"></use></g><g><use xlink:href="#a2qvhNs79" opacity="1" fill="#c5764c" fill-opacity="1"></use></g><g><use xlink:href="#g4rznVeBv" opacity="1" fill="#c5764c" fill-opacity="1"></use></g><g><use xlink:href="#d1JEdnmta" opacity="1" fill="#c5764c" fill-opacity="1"></use></g><g><use xlink:href="#bf26S9e1i" opacity="1" fill="#46cf3c" fill-opacity="1"></use></g><g><use xlink:href="#f63DfEFYBu" opacity="1" fill="#b9613a" fill-opacity="1"></use></g><g><use xlink:href="#a36qx4R8Rt" opacity="1" fill="#b9613a" fill-opacity="1"></use></g><g><use xlink:href="#c1zMNsDU2e" opacity="1" fill="#b9613a" fill-opacity="1"></use></g><g><use xlink:href="#ffq99iFr6" opacity="1" fill="#b9613a" fill-opacity="1"></use></g><g><use xlink:href="#adx5helzL" opacity="1" fill="#d47c3e" fill-opacity="1"></use></g><g><use xlink:href="#a3liNHskVC" opacity="1" fill="#d47c3e" fill-opacity="1"></use></g><g><use xlink:href="#gbUpKiWZy" opacity="1" fill="#d47c3e" fill-opacity="1"></use></g><g><use xlink:href="#b5Y8TwBSYZ" opacity="1" fill="#c5764c" fill-opacity="1"></use></g><g><use xlink:href="#c1Akw82QfV" opacity="1" fill="#c5764c" fill-opacity="1"></use></g><g><use xlink:href="#bsRDsFVLv" opacity="1" fill="#c5764c" fill-opacity="1"></use></g><g><use xlink:href="#a4X1irnNQk" opacity="1" fill="#c5764c" fill-opacity="1"></use></g></g></g></svg>