<?xml version="1.0" encoding="UTF-8" standalone="no"?>
<!DOCTYPE svg PUBLIC "-//W3C//DTD SVG 1.1//EN" "http://www.w3.org/Graphics/SVG/1.1/DTD/svg11.dtd">
<svg version="1.1" xmlns="http://www.w3.org/2000/svg" xmlns:xlink="http://www.w3.org/1999/xlink" preserveAspectRatio="xMidYMid meet" viewBox="0 0 16 16" width="16" height="16"><defs><path d="M0 8L0 12L4 4L8 12L12 4L16 12L16 8L12 0L8 8L4 0L0 8Z" id="a1NeOTJcrF"></path><path d="M0 12L0 16L4 8L8 16L12 8L16 16L16 12L12 4L8 12L4 4L0 12Z" id="bbibS30mE6"></path><path d="M0 16L0 20L4 12L8 20L12 12L16 20L16 16L12 8L8 16L4 8L0 16Z" id="b1jlKmEDyY"></path><path d="M0 20L0 24L4 16L8 24L12 16L16 24L16 20L12 12L8 20L4 12L0 20Z" id="bwHm0cQPS"></path><path d="M0 0L0 4L4 -4L8 4L12 -4L16 4L16 0L12 -8L8 0L4 -8L0 0Z" id="c42PIEIIg0"></path><path d="M0 4L0 8L4 0L8 8L12 0L16 8L16 4L12 -4L8 4L4 -4L0 4Z" id="akrwK2rU6"></path></defs><g><g><g><use xlink:href="#a1NeOTJcrF" opacity="1" fill="#686868" fill-opacity="1"></use></g><g><use xlink:href="#bbibS30mE6" opacity="1" fill="#848484" fill-opacity="1"></use></g><g><use xlink:href="#b1jlKmEDyY" opacity="1" fill="#686868" fill-opacity="1"></use></g><g><use xlink:href="#bwHm0cQPS" opacity="1" fill="#848484" fill-opacity="1"></use></g><g><use xlink:href="#c42PIEIIg0" opacity="1" fill="#686868" fill-opacity="1"></use></g><g><use xlink:href="#akrwK2rU6" opacity="1" fill="#848484" fill-opacity="1"></use></g></g></g></svg>