<?xml version="1.0" encoding="UTF-8" standalone="no"?>
<!DOCTYPE svg PUBLIC "-//W3C//DTD SVG 1.1//EN" "http://www.w3.org/Graphics/SVG/1.1/DTD/svg11.dtd">
<svg version="1.1" xmlns="http://www.w3.org/2000/svg" xmlns:xlink="http://www.w3.org/1999/xlink" preserveAspectRatio="xMidYMid meet" viewBox="0 0 16 16" width="16" height="16"><defs><path d="M-2.7 -6.54L20.7 -6.54L20.7 21.27L-2.7 21.27L-2.7 -6.54Z" id="avnD9CroI"></path><path d="M14.34 0.06C14.54 0.35 14.93 0.43 15.22 0.23C15.51 0.04 15.59 -0.35 15.39 -0.64C15.2 -0.93 14.8 -1.01 14.51 -0.82C14.22 -0.62 14.15 -0.23 14.34 0.06Z" id="c3K4Dz8WC"></path><path d="M14.39 -0.88L14.63 -0.64L14.76 -0.33L14.76 -0.22L14.86 -0.18L15.1 0.06L15.23 0.37L15.23 0.69L15.11 0.99L14.87 1.23L14.8 1.26L14.58 1.77L14.09 2.26L13.46 2.53L12.88 2.53L12.77 2.64L12.46 2.77L12.14 2.77L11.84 2.65L11.6 2.41L11.47 2.1L11.47 1.99L11.37 1.95L11.13 1.71L11 1.4L11 1.08L11.12 0.78L11.36 0.54L11.5 0.48L11.73 -0.06L12.21 -0.54L12.85 -0.81L13.4 -0.82L13.46 -0.87L13.77 -1L14.09 -1L14.39 -0.88Z" id="a6LAblRwc"></path><path d="M14.34 16.06C14.54 16.35 14.93 16.43 15.22 16.23C15.51 16.04 15.59 15.65 15.39 15.36C15.2 15.07 14.8 14.99 14.51 15.18C14.22 15.38 14.15 15.77 14.34 16.06Z" id="a1jEEX2Fch"></path><path d="M1.96 8.56C1.8 8.25 1.42 8.13 1.11 8.29C0.8 8.45 0.68 8.83 0.84 9.14C1 9.45 1.38 9.58 1.69 9.41C2 9.25 2.12 8.87 1.96 8.56Z" id="b2ZAJ6SklL"></path><path d="M4.74 6.27L4.95 6.53L5.05 6.86L5.03 6.97L5.13 7.02L5.34 7.28L5.43 7.61L5.4 7.93L5.24 8.21L4.98 8.42L4.83 8.46L4.55 8.97L4.01 9.4L3.35 9.59L2.8 9.54L2.73 9.59L2.41 9.68L2.09 9.64L1.81 9.49L1.6 9.23L1.5 8.91L1.52 8.79L1.42 8.74L1.21 8.48L1.12 8.16L1.15 7.83L1.31 7.55L1.57 7.34L1.65 7.32L1.92 6.83L2.46 6.4L3.12 6.21L3.7 6.27L3.82 6.17L4.14 6.08L4.46 6.12L4.74 6.27Z" id="aEHoJgxVh"></path><path d="M14.39 15.12L14.63 15.36L14.76 15.67L14.76 15.78L14.86 15.82L15.1 16.06L15.23 16.37L15.23 16.69L15.11 16.99L14.87 17.23L14.8 17.26L14.58 17.77L14.09 18.26L13.46 18.53L12.88 18.53L12.77 18.64L12.46 18.77L12.14 18.77L11.84 18.65L11.6 18.41L11.47 18.1L11.47 17.99L11.37 17.95L11.13 17.71L11 17.4L11 17.08L11.12 16.78L11.36 16.54L11.5 16.48L11.73 15.94L12.21 15.46L12.85 15.19L13.4 15.19L13.46 15.13L13.77 15L14.09 15L14.39 15.12Z" id="c26Xr1ubOP"></path></defs><g><g><g><use xlink:href="#avnD9CroI" opacity="1" fill="#7acf3c" fill-opacity="1"></use></g><g><use xlink:href="#c3K4Dz8WC" opacity="1" fill="#000000" fill-opacity="1"></use></g><g><use xlink:href="#a6LAblRwc" opacity="1" fill="#ffffff" fill-opacity="1"></use></g><g><use xlink:href="#a1jEEX2Fch" opacity="1" fill="#000000" fill-opacity="1"></use></g><g><use xlink:href="#b2ZAJ6SklL" opacity="1" fill="#000000" fill-opacity="1"></use></g><g><use xlink:href="#aEHoJgxVh" opacity="1" fill="#ffffff" fill-opacity="1"></use></g><g><use xlink:href="#c26Xr1ubOP" opacity="1" fill="#ffffff" fill-opacity="1"></use></g></g></g></svg>