<?xml version="1.0" encoding="UTF-8" standalone="no"?>
<!DOCTYPE svg PUBLIC "-//W3C//DTD SVG 1.1//EN" "http://www.w3.org/Graphics/SVG/1.1/DTD/svg11.dtd">
<svg version="1.1" xmlns="http://www.w3.org/2000/svg" xmlns:xlink="http://www.w3.org/1999/xlink" preserveAspectRatio="xMidYMid meet" viewBox="0 0 16 16" width="16" height="16"><defs><path d="M0 0L0 2L16 2L16 0L16 -0.91C14.69 -0.29 13.35 0.01 12 0C10.65 -0.01 9.31 -0.34 8 -1C6.67 -1.66 5.33 -2 4 -2C2.67 -2 1.33 -1.67 0 -1L0 0Z" id="c1disHoxpK"></path><path d="M16 2L16 4L0 4L0 2L0 1.09C1.31 1.71 2.65 2.01 4 2C5.35 1.99 6.69 1.66 8 1C9.33 0.34 10.67 0 12 0C13.33 0 14.67 0.33 16 1L16 2Z" id="aETLzx8OV"></path><path d="M0 4L0 6L16 6L16 4L16 3.09C14.69 3.71 13.35 4.01 12 4C10.65 3.99 9.31 3.66 8 3C6.67 2.34 5.33 2.01 4 2C2.67 2 1.33 2.33 0 3L0 4Z" id="b3WBDwUadx"></path><path d="M16 6L16 8L0 8L0 6L0 5.09C1.31 5.71 2.65 6.01 4 6C5.35 5.99 6.69 5.66 8 5C9.33 4.34 10.67 4.01 12 4C13.33 4 14.67 4.33 16 5L16 6Z" id="b1pRLV2UXE"></path><path d="M0 8L0 10L16 10L16 8L16 7.09C14.69 7.71 13.35 8.01 12 8C10.65 7.99 9.31 7.66 8 7C6.67 6.34 5.33 6.01 4 6C2.67 6 1.33 6.33 0 7L0 8Z" id="k1oV2wnya3"></path><path d="M16 10L16 12L0 12L0 10L0 9.09C1.31 9.71 2.65 10.01 4 10C5.35 9.99 6.69 9.66 8 9C9.33 8.34 10.67 8.01 12 8C13.33 8 14.67 8.33 16 9L16 10Z" id="cawfsEvWF"></path><path d="M0 12L0 14L16 14L16 12L16 11.09C14.69 11.71 13.35 12.01 12 12C10.65 11.99 9.31 11.66 8 11C6.67 10.34 5.33 10.01 4 10C2.67 10 1.33 10.33 0 11L0 12Z" id="aquhnHWHk"></path><path d="M16 14L16 16L0 16L0 14L0 13.09C1.31 13.71 2.65 14.01 4 14C5.35 13.99 6.69 13.66 8 13C9.33 12.34 10.67 12.01 12 12C13.33 12 14.67 12.33 16 13L16 14Z" id="hmtUnbZ4v"></path><path d="M0 16L0 18L16 18L16 16L16 15.09C14.69 15.71 13.35 16.01 12 16C10.65 15.99 9.31 15.66 8 15C6.67 14.34 5.33 14.01 4 14C2.67 14 1.33 14.33 0 15L0 16Z" id="bvshJ8dkY"></path></defs><g><g><g><use xlink:href="#c1disHoxpK" opacity="1" fill="#3c76b6" fill-opacity="1"></use><g><use xlink:href="#c1disHoxpK" opacity="1" fill-opacity="0" stroke="#000000" stroke-width="0" stroke-opacity="1"></use></g></g><g><use xlink:href="#aETLzx8OV" opacity="1" fill="#5795da" fill-opacity="1"></use><g><use xlink:href="#aETLzx8OV" opacity="1" fill-opacity="0" stroke="#000000" stroke-width="0" stroke-opacity="1"></use></g></g><g><use xlink:href="#b3WBDwUadx" opacity="1" fill="#3c76b6" fill-opacity="1"></use><g><use xlink:href="#b3WBDwUadx" opacity="1" fill-opacity="0" stroke="#000000" stroke-width="0" stroke-opacity="1"></use></g></g><g><use xlink:href="#b1pRLV2UXE" opacity="1" fill="#5795da" fill-opacity="1"></use><g><use xlink:href="#b1pRLV2UXE" opacity="1" fill-opacity="0" stroke="#000000" stroke-width="0" stroke-opacity="1"></use></g></g><g><use xlink:href="#k1oV2wnya3" opacity="1" fill="#3c76b6" fill-opacity="1"></use><g><use xlink:href="#k1oV2wnya3" opacity="1" fill-opacity="0" stroke="#000000" stroke-width="0" stroke-opacity="1"></use></g></g><g><use xlink:href="#cawfsEvWF" opacity="1" fill="#5795da" fill-opacity="1"></use><g><use xlink:href="#cawfsEvWF" opacity="1" fill-opacity="0" stroke="#000000" stroke-width="0" stroke-opacity="1"></use></g></g><g><use xlink:href="#aquhnHWHk" opacity="1" fill="#3c76b6" fill-opacity="1"></use><g><use xlink:href="#aquhnHWHk" opacity="1" fill-opacity="0" stroke="#000000" stroke-width="0" stroke-opacity="1"></use></g></g><g><use xlink:href="#hmtUnbZ4v" opacity="1" fill="#5795da" fill-opacity="1"></use><g><use xlink:href="#hmtUnbZ4v" opacity="1" fill-opacity="0" stroke="#000000" stroke-width="0" stroke-opacity="1"></use></g></g><g><use xlink:href="#bvshJ8dkY" opacity="1" fill="#3c76b6" fill-opacity="1"></use><g><use xlink:href="#bvshJ8dkY" opacity="1" fill-opacity="0" stroke="#000000" stroke-width="0" stroke-opacity="1"></use></g></g></g></g></svg>